<svg xmlns="http://www.w3.org/2000/svg" xmlns:xlink="http://www.w3.org/1999/xlink" width="500" zoomAndPan="magnify" viewBox="0 0 375 374.999991" height="500" preserveAspectRatio="xMidYMid meet" version="1.0"><defs><g/><clipPath id="01f025110a"><path d="M 137 162 L 238 162 L 238 238.285156 L 137 238.285156 Z M 137 162 " clip-rule="nonzero"/></clipPath><clipPath id="ecd0371762"><path d="M 82.128906 148 L 190 148 L 190 229 L 82.128906 229 Z M 82.128906 148 " clip-rule="nonzero"/></clipPath><clipPath id="ca8c3d91e4"><path d="M 137 52.859375 L 237 52.859375 L 237 129 L 137 129 Z M 137 52.859375 " clip-rule="nonzero"/></clipPath><clipPath id="4a471e3b41"><path d="M 185 62 L 292.410156 62 L 292.410156 143 L 185 143 Z M 185 62 " clip-rule="nonzero"/></clipPath></defs><rect x="-37.5" width="450" fill="#ffffff" y="-37.499999" height="449.999989" fill-opacity="1"/><rect x="-37.5" width="450" fill="#ffffff" y="-37.499999" height="449.999989" fill-opacity="1"/><g fill="#000000" fill-opacity="1"><g transform="translate(64.388743, 332.307925)"><g><path d="M 14 -16.328125 L 14 0 L 12.359375 0 L 12.359375 -7.640625 L 3.5 -7.640625 L 3.5 0 L 1.875 0 L 1.875 -16.328125 L 3.5 -16.328125 L 3.5 -9 L 12.359375 -9 L 12.359375 -16.328125 Z M 14 -16.328125 "/></g></g></g><g fill="#000000" fill-opacity="1"><g transform="translate(92.118555, 332.307925)"><g><path d="M 3.5 -15 L 3.5 -8.90625 L 9.6875 -8.90625 L 9.6875 -7.546875 L 3.5 -7.546875 L 3.5 -1.359375 L 10.390625 -1.359375 L 10.390625 0 L 1.875 0 L 1.875 -16.34375 L 10.390625 -16.34375 L 10.390625 -15 Z M 3.5 -15 "/></g></g></g><g fill="#000000" fill-opacity="1"><g transform="translate(115.737354, 332.307925)"><g><path d="M 11.328125 -3.875 L 3.90625 -3.875 L 2.46875 0 L 0.75 0 L 6.703125 -16.125 L 8.546875 -16.125 L 14.484375 0 L 12.75 0 Z M 10.84375 -5.234375 L 7.609375 -14.0625 L 4.390625 -5.234375 Z M 10.84375 -5.234375 "/></g></g></g><g fill="#000000" fill-opacity="1"><g transform="translate(142.836498, 332.307925)"><g><path d="M 3.5 -1.328125 L 9.359375 -1.328125 L 9.359375 0 L 1.875 0 L 1.875 -16.328125 L 3.5 -16.328125 Z M 3.5 -1.328125 "/></g></g></g><g fill="#000000" fill-opacity="1"><g transform="translate(164.539938, 332.307925)"><g><path d="M 11.421875 -16.328125 L 11.421875 -14.96875 L 6.890625 -14.96875 L 6.890625 0 L 5.25 0 L 5.25 -14.96875 L 0.703125 -14.96875 L 0.703125 -16.328125 Z M 11.421875 -16.328125 "/></g></g></g><g fill="#000000" fill-opacity="1"><g transform="translate(188.555835, 332.307925)"><g><path d="M 14 -16.328125 L 14 0 L 12.359375 0 L 12.359375 -7.640625 L 3.5 -7.640625 L 3.5 0 L 1.875 0 L 1.875 -16.328125 L 3.5 -16.328125 L 3.5 -9 L 12.359375 -9 L 12.359375 -16.328125 Z M 14 -16.328125 "/></g></g></g><g fill="#000000" fill-opacity="1"><g transform="translate(216.285653, 332.307925)"><g><path d="M 1.125 -8.171875 C 1.125 -9.773438 1.472656 -11.210938 2.171875 -12.484375 C 2.867188 -13.753906 3.828125 -14.742188 5.046875 -15.453125 C 6.265625 -16.160156 7.617188 -16.515625 9.109375 -16.515625 C 10.929688 -16.515625 12.492188 -16.082031 13.796875 -15.21875 C 15.097656 -14.351562 16.039062 -13.132812 16.625 -11.5625 L 14.71875 -11.5625 C 14.25 -12.664062 13.535156 -13.53125 12.578125 -14.15625 C 11.617188 -14.78125 10.460938 -15.09375 9.109375 -15.09375 C 7.910156 -15.09375 6.832031 -14.8125 5.875 -14.25 C 4.914062 -13.6875 4.160156 -12.878906 3.609375 -11.828125 C 3.066406 -10.773438 2.796875 -9.554688 2.796875 -8.171875 C 2.796875 -6.785156 3.066406 -5.570312 3.609375 -4.53125 C 4.160156 -3.488281 4.914062 -2.6875 5.875 -2.125 C 6.832031 -1.5625 7.910156 -1.28125 9.109375 -1.28125 C 10.460938 -1.28125 11.617188 -1.585938 12.578125 -2.203125 C 13.535156 -2.816406 14.25 -3.671875 14.71875 -4.765625 L 16.625 -4.765625 C 16.039062 -3.203125 15.09375 -1.992188 13.78125 -1.140625 C 12.46875 -0.285156 10.910156 0.140625 9.109375 0.140625 C 7.617188 0.140625 6.265625 -0.210938 5.046875 -0.921875 C 3.828125 -1.628906 2.867188 -2.613281 2.171875 -3.875 C 1.472656 -5.132812 1.125 -6.566406 1.125 -8.171875 Z M 1.125 -8.171875 "/></g></g></g><g fill="#000000" fill-opacity="1"><g transform="translate(246.164405, 332.307925)"><g><path d="M 11.328125 -3.875 L 3.90625 -3.875 L 2.46875 0 L 0.75 0 L 6.703125 -16.125 L 8.546875 -16.125 L 14.484375 0 L 12.75 0 Z M 10.84375 -5.234375 L 7.609375 -14.0625 L 4.390625 -5.234375 Z M 10.84375 -5.234375 "/></g></g></g><g fill="#000000" fill-opacity="1"><g transform="translate(273.263555, 332.307925)"><g><path d="M 10.5625 0 L 6.515625 -6.828125 L 3.5 -6.828125 L 3.5 0 L 1.875 0 L 1.875 -16.328125 L 6.78125 -16.328125 C 8.59375 -16.328125 9.96875 -15.890625 10.90625 -15.015625 C 11.851562 -14.148438 12.328125 -13.007812 12.328125 -11.59375 C 12.328125 -10.40625 11.988281 -9.394531 11.3125 -8.5625 C 10.632812 -7.726562 9.632812 -7.1875 8.3125 -6.9375 L 12.515625 0 Z M 3.5 -8.15625 L 6.796875 -8.15625 C 8.078125 -8.15625 9.039062 -8.460938 9.6875 -9.078125 C 10.332031 -9.703125 10.65625 -10.539062 10.65625 -11.59375 C 10.65625 -12.664062 10.34375 -13.492188 9.71875 -14.078125 C 9.09375 -14.660156 8.113281 -14.953125 6.78125 -14.953125 L 3.5 -14.953125 Z M 3.5 -8.15625 "/></g></g></g><g fill="#000000" fill-opacity="1"><g transform="translate(298.844438, 332.307925)"><g><path d="M 3.5 -15 L 3.5 -8.90625 L 9.6875 -8.90625 L 9.6875 -7.546875 L 3.5 -7.546875 L 3.5 -1.359375 L 10.390625 -1.359375 L 10.390625 0 L 1.875 0 L 1.875 -16.34375 L 10.390625 -16.34375 L 10.390625 -15 Z M 3.5 -15 "/></g></g></g><path fill="#7f248d" d="M 231.664062 121.066406 C 227.304688 121.46875 223.195312 122.625 219.457031 124.394531 C 234.527344 124.746094 248.382812 134.523438 253.183594 149.6875 C 260.40625 172.492188 239.058594 206.824219 242.804688 234.835938 C 244.941406 208.578125 269.574219 181.59375 271.136719 158.753906 C 272.78125 159.8125 274.765625 160.355469 276.863281 160.164062 C 281.835938 159.707031 285.5 155.304688 285.039062 150.332031 C 284.582031 145.363281 280.175781 141.703125 275.203125 142.164062 C 272.796875 142.382812 270.707031 143.53125 269.234375 145.214844 C 263.882812 129.855469 248.601562 119.507812 231.664062 121.066406 " fill-opacity="1" fill-rule="nonzero"/><g clip-path="url(#01f025110a)"><path fill="#1082ce" d="M 230.707031 171.738281 C 228.179688 168.164062 225.121094 165.1875 221.71875 162.835938 C 228.949219 176.050781 227.402344 192.933594 216.660156 204.667969 C 200.507812 222.320312 160.078125 221.011719 137.667969 238.261719 C 161.5 226.980469 197.203125 234.804688 217.777344 224.738281 C 217.683594 226.6875 218.203125 228.679688 219.417969 230.394531 C 222.304688 234.472656 227.949219 235.4375 232.027344 232.554688 C 236.109375 229.675781 237.078125 224.035156 234.191406 219.960938 C 232.796875 217.988281 230.757812 216.753906 228.5625 216.320312 C 239.199219 204.007812 240.527344 185.613281 230.707031 171.738281 " fill-opacity="1" fill-rule="nonzero"/></g><g clip-path="url(#ecd0371762)"><path fill="#40b93c" d="M 186.3125 196.242188 C 188.144531 192.269531 189.199219 188.132812 189.53125 184.011719 C 181.695312 196.878906 166.289062 203.980469 150.746094 200.554688 C 127.367188 195.402344 108.289062 159.761719 82.132812 148.996094 C 103.828125 163.976562 114.898438 198.78125 133.910156 211.554688 C 132.171875 212.445312 130.707031 213.894531 129.828125 215.804688 C 127.738281 220.335938 129.722656 225.707031 134.257812 227.792969 C 138.792969 229.882812 144.167969 227.902344 146.257812 223.367188 C 147.269531 221.175781 147.320312 218.792969 146.597656 216.675781 C 162.585938 219.730469 179.195312 211.675781 186.3125 196.242188 " fill-opacity="1" fill-rule="nonzero"/></g><path fill="#fbc108" d="M 142.875 170.078125 C 147.234375 169.675781 151.34375 168.519531 155.085938 166.75 C 140.015625 166.398438 126.15625 156.621094 121.355469 141.457031 C 114.132812 118.652344 135.480469 84.320312 131.738281 56.304688 C 129.597656 82.566406 104.964844 109.550781 103.402344 132.390625 C 101.761719 131.332031 99.773438 130.789062 97.679688 130.980469 C 92.703125 131.4375 89.042969 135.839844 89.5 140.8125 C 89.960938 145.78125 94.363281 149.441406 99.335938 148.980469 C 101.742188 148.761719 103.832031 147.613281 105.308594 145.929688 C 110.65625 161.289062 125.9375 171.636719 142.875 170.078125 " fill-opacity="1" fill-rule="nonzero"/><g clip-path="url(#ca8c3d91e4)"><path fill="#e91348" d="M 143.832031 119.40625 C 146.359375 122.980469 149.417969 125.957031 152.824219 128.308594 C 145.589844 115.09375 147.136719 98.210938 157.878906 86.476562 C 174.035156 68.824219 214.464844 70.132812 236.871094 52.882812 C 213.042969 64.164062 177.339844 56.339844 156.761719 66.40625 C 156.859375 64.457031 156.332031 62.464844 155.121094 60.75 C 152.238281 56.671875 146.59375 55.707031 142.511719 58.589844 C 138.433594 61.46875 137.464844 67.109375 140.347656 71.183594 C 141.742188 73.15625 143.785156 74.390625 145.980469 74.824219 C 135.339844 87.132812 134.011719 105.53125 143.832031 119.40625 " fill-opacity="1" fill-rule="nonzero"/></g><g clip-path="url(#4a471e3b41)"><path fill="#f1471d" d="M 188.226562 94.902344 C 186.394531 98.875 185.34375 103.011719 185.007812 107.132812 C 192.847656 94.265625 208.25 87.164062 223.792969 90.589844 C 247.171875 95.742188 266.25 131.382812 292.40625 142.148438 C 270.710938 127.167969 259.640625 92.359375 240.632812 79.589844 C 242.367188 78.699219 243.832031 77.25 244.710938 75.339844 C 246.804688 70.808594 244.820312 65.4375 240.28125 63.347656 C 235.746094 61.261719 230.371094 63.242188 228.28125 67.777344 C 227.273438 69.96875 227.222656 72.351562 227.941406 74.46875 C 211.953125 71.414062 195.347656 79.464844 188.226562 94.902344 " fill-opacity="1" fill-rule="nonzero"/></g><g fill="#000000" fill-opacity="1"><g transform="translate(7.04524, 296.981627)"><g><path d="M 33.484375 0 L 33.4375 -19.53125 L 23.859375 -3.4375 L 20.453125 -3.4375 L 10.921875 -19.109375 L 10.921875 0 L 3.859375 0 L 3.859375 -32.546875 L 10.09375 -32.546875 L 22.28125 -12.328125 L 34.265625 -32.546875 L 40.453125 -32.546875 L 40.546875 0 Z M 33.484375 0 "/></g></g></g><g fill="#000000" fill-opacity="1"><g transform="translate(53.164391, 296.981627)"><g><path d="M 25.296875 -6.96875 L 10.1875 -6.96875 L 7.296875 0 L -0.421875 0 L 14.09375 -32.546875 L 21.53125 -32.546875 L 36.078125 0 L 28.171875 0 Z M 22.921875 -12.6875 L 17.765625 -25.15625 L 12.59375 -12.6875 Z M 22.921875 -12.6875 "/></g></g></g><g fill="#000000" fill-opacity="1"><g transform="translate(90.496815, 296.981627)"><g><path d="M 33.71875 -32.546875 L 33.71875 0 L 27.53125 0 L 11.296875 -19.765625 L 11.296875 0 L 3.859375 0 L 3.859375 -32.546875 L 10.09375 -32.546875 L 26.265625 -12.78125 L 26.265625 -32.546875 Z M 33.71875 -32.546875 "/></g></g></g><g fill="#000000" fill-opacity="1"><g transform="translate(129.781852, 296.981627)"><g><path d="M 19.4375 0.5625 C 16.125 0.5625 13.125 -0.15625 10.4375 -1.59375 C 7.757812 -3.039062 5.648438 -5.039062 4.109375 -7.59375 C 2.578125 -10.15625 1.8125 -13.050781 1.8125 -16.28125 C 1.8125 -19.5 2.578125 -22.382812 4.109375 -24.9375 C 5.648438 -27.5 7.757812 -29.5 10.4375 -30.9375 C 13.125 -32.382812 16.140625 -33.109375 19.484375 -33.109375 C 22.304688 -33.109375 24.851562 -32.609375 27.125 -31.609375 C 29.40625 -30.617188 31.320312 -29.195312 32.875 -27.34375 L 28.046875 -22.875 C 25.835938 -25.414062 23.109375 -26.6875 19.859375 -26.6875 C 17.835938 -26.6875 16.035156 -26.242188 14.453125 -25.359375 C 12.878906 -24.484375 11.648438 -23.253906 10.765625 -21.671875 C 9.878906 -20.085938 9.4375 -18.289062 9.4375 -16.28125 C 9.4375 -14.257812 9.878906 -12.457031 10.765625 -10.875 C 11.648438 -9.300781 12.878906 -8.070312 14.453125 -7.1875 C 16.035156 -6.300781 17.835938 -5.859375 19.859375 -5.859375 C 23.109375 -5.859375 25.835938 -7.144531 28.046875 -9.71875 L 32.875 -5.25 C 31.320312 -3.363281 29.398438 -1.921875 27.109375 -0.921875 C 24.816406 0.0664062 22.257812 0.5625 19.4375 0.5625 Z M 19.4375 0.5625 "/></g></g></g><g fill="#000000" fill-opacity="1"><g transform="translate(165.580085, 296.981627)"><g><path d="M 33.71875 -32.546875 L 33.71875 0 L 26.171875 0 L 26.171875 -13.34375 L 11.390625 -13.34375 L 11.390625 0 L 3.859375 0 L 3.859375 -32.546875 L 11.390625 -32.546875 L 11.390625 -19.71875 L 26.171875 -19.71875 L 26.171875 -32.546875 Z M 33.71875 -32.546875 "/></g></g></g><g fill="#000000" fill-opacity="1"><g transform="translate(204.865114, 296.981627)"><g><path d="M 29.0625 -6.046875 L 29.0625 0 L 3.859375 0 L 3.859375 -32.546875 L 28.453125 -32.546875 L 28.453125 -26.5 L 11.34375 -26.5 L 11.34375 -19.4375 L 26.453125 -19.4375 L 26.453125 -13.578125 L 11.34375 -13.578125 L 11.34375 -6.046875 Z M 29.0625 -6.046875 "/></g></g></g><g fill="#000000" fill-opacity="1"><g transform="translate(237.780934, 296.981627)"><g><path d="M 14.546875 0.5625 C 11.972656 0.5625 9.484375 0.210938 7.078125 -0.484375 C 4.679688 -1.179688 2.753906 -2.085938 1.296875 -3.203125 L 3.859375 -8.875 C 5.253906 -7.851562 6.910156 -7.03125 8.828125 -6.40625 C 10.753906 -5.789062 12.675781 -5.484375 14.59375 -5.484375 C 16.738281 -5.484375 18.320312 -5.800781 19.34375 -6.4375 C 20.363281 -7.070312 20.875 -7.914062 20.875 -8.96875 C 20.875 -9.75 20.570312 -10.394531 19.96875 -10.90625 C 19.363281 -11.414062 18.585938 -11.820312 17.640625 -12.125 C 16.703125 -12.4375 15.425781 -12.78125 13.8125 -13.15625 C 11.332031 -13.75 9.300781 -14.335938 7.71875 -14.921875 C 6.132812 -15.515625 4.773438 -16.460938 3.640625 -17.765625 C 2.515625 -19.066406 1.953125 -20.800781 1.953125 -22.96875 C 1.953125 -24.863281 2.460938 -26.578125 3.484375 -28.109375 C 4.503906 -29.640625 6.046875 -30.851562 8.109375 -31.75 C 10.171875 -32.65625 12.691406 -33.109375 15.671875 -33.109375 C 17.742188 -33.109375 19.769531 -32.859375 21.75 -32.359375 C 23.738281 -31.867188 25.476562 -31.15625 26.96875 -30.21875 L 24.640625 -24.5 C 21.640625 -26.207031 18.632812 -27.0625 15.625 -27.0625 C 13.519531 -27.0625 11.960938 -26.71875 10.953125 -26.03125 C 9.941406 -25.351562 9.4375 -24.457031 9.4375 -23.34375 C 9.4375 -22.226562 10.015625 -21.398438 11.171875 -20.859375 C 12.335938 -20.316406 14.113281 -19.78125 16.5 -19.25 C 18.988281 -18.664062 21.019531 -18.078125 22.59375 -17.484375 C 24.175781 -16.890625 25.53125 -15.957031 26.65625 -14.6875 C 27.789062 -13.414062 28.359375 -11.695312 28.359375 -9.53125 C 28.359375 -7.675781 27.835938 -5.976562 26.796875 -4.4375 C 25.765625 -2.90625 24.207031 -1.6875 22.125 -0.78125 C 20.050781 0.113281 17.523438 0.5625 14.546875 0.5625 Z M 14.546875 0.5625 "/></g></g></g><g fill="#000000" fill-opacity="1"><g transform="translate(269.162562, 296.981627)"><g><path d="M 10.609375 -26.40625 L 0.1875 -26.40625 L 0.1875 -32.546875 L 28.546875 -32.546875 L 28.546875 -26.40625 L 18.140625 -26.40625 L 18.140625 0 L 10.609375 0 Z M 10.609375 -26.40625 "/></g></g></g><g fill="#000000" fill-opacity="1"><g transform="translate(299.614366, 296.981627)"><g><path d="M 29.0625 -6.046875 L 29.0625 0 L 3.859375 0 L 3.859375 -32.546875 L 28.453125 -32.546875 L 28.453125 -26.5 L 11.34375 -26.5 L 11.34375 -19.4375 L 26.453125 -19.4375 L 26.453125 -13.578125 L 11.34375 -13.578125 L 11.34375 -6.046875 Z M 29.0625 -6.046875 "/></g></g></g><g fill="#000000" fill-opacity="1"><g transform="translate(332.530168, 296.981627)"><g><path d="M 24.59375 0 L 18.328125 -9.0625 L 11.390625 -9.0625 L 11.390625 0 L 3.859375 0 L 3.859375 -32.546875 L 17.953125 -32.546875 C 20.835938 -32.546875 23.335938 -32.066406 25.453125 -31.109375 C 27.578125 -30.148438 29.210938 -28.785156 30.359375 -27.015625 C 31.503906 -25.242188 32.078125 -23.148438 32.078125 -20.734375 C 32.078125 -18.316406 31.492188 -16.234375 30.328125 -14.484375 C 29.171875 -12.734375 27.523438 -11.394531 25.390625 -10.46875 L 32.6875 0 Z M 24.453125 -20.734375 C 24.453125 -22.566406 23.863281 -23.96875 22.6875 -24.9375 C 21.507812 -25.914062 19.789062 -26.40625 17.53125 -26.40625 L 11.390625 -26.40625 L 11.390625 -15.0625 L 17.53125 -15.0625 C 19.789062 -15.0625 21.507812 -15.554688 22.6875 -16.546875 C 23.863281 -17.546875 24.453125 -18.941406 24.453125 -20.734375 Z M 24.453125 -20.734375 "/></g></g></g></svg>