<?xml version="1.0" standalone="no"?>
<!DOCTYPE svg PUBLIC "-//W3C//DTD SVG 20010904//EN"
 "http://www.w3.org/TR/2001/REC-SVG-20010904/DTD/svg10.dtd">
<svg version="1.0" xmlns="http://www.w3.org/2000/svg"
 width="700.000000pt" height="700.000000pt" viewBox="0 0 700.000000 700.000000"
 preserveAspectRatio="xMidYMid meet">
<metadata>
Created by potrace 1.14, written by Peter Selinger 2001-2017
</metadata>
<g transform="translate(0.000000,700.000000) scale(0.100000,-0.100000)"
fill="#000000" stroke="none">
<path d="M5106 6568 c-98 -56 -473 -150 -696 -173 -30 -3 -71 -8 -90 -10 -19
-2 -71 -7 -115 -10 -44 -4 -103 -8 -132 -10 -28 -3 -100 -7 -160 -10 -59 -3
-148 -8 -198 -10 -49 -3 -133 -8 -185 -10 -268 -14 -496 -39 -650 -71 -41 -9
-85 -18 -96 -20 -47 -9 -239 -75 -262 -90 -29 -19 -33 -16 -39 33 -2 21 -15
62 -28 91 -83 184 -329 231 -475 91 -66 -63 -92 -124 -93 -214 -2 -122 64
-225 175 -275 29 -13 55 -26 57 -27 3 -2 -7 -16 -21 -31 -101 -109 -206 -338
-245 -530 -20 -103 -24 -287 -8 -392 48 -319 215 -602 467 -794 l38 -28 -30
66 c-180 397 -143 842 99 1194 119 172 263 293 476 400 204 102 374 159 930
314 590 163 863 258 1062 369 32 18 73 41 92 51 47 26 151 98 151 103 0 7 -2
6 -24 -7z"/>
<path d="M1642 6398 c-5 -65 -43 -235 -78 -348 -64 -204 -146 -395 -322 -745
-323 -644 -366 -735 -435 -930 -40 -111 -50 -149 -76 -278 -10 -48 -19 -90
-20 -92 0 -3 -1 -19 -1 -36 0 -24 -3 -29 -12 -21 -26 21 -129 44 -177 39 -64
-6 -149 -46 -189 -88 -146 -154 -98 -400 95 -485 96 -43 200 -32 294 31 28 20
53 34 54 33 1 -2 14 -32 29 -68 24 -57 95 -186 118 -215 4 -5 24 -30 44 -55
50 -63 143 -158 184 -189 19 -14 37 -28 40 -31 5 -5 42 -30 81 -55 9 -5 53
-29 97 -53 158 -82 324 -123 517 -127 134 -3 202 4 315 31 66 16 224 73 218
79 -2 2 -34 6 -73 8 -280 22 -565 161 -768 377 -213 225 -322 507 -321 825 1
245 45 473 218 1135 93 354 145 590 162 735 3 28 8 53 9 56 12 18 21 274 16
447 -1 57 -15 71 -19 20z"/>
<path d="M5085 6263 c-171 -39 -273 -194 -241 -361 6 -31 5 -32 -21 -26 -58
13 -308 12 -389 -2 -322 -56 -587 -220 -781 -481 -94 -127 -186 -333 -208
-468 -3 -22 -10 -61 -14 -87 -4 -27 -7 -48 -5 -48 1 0 24 30 50 68 116 163
308 318 497 400 231 102 451 125 731 77 98 -17 249 -81 386 -163 201 -121 332
-235 781 -676 411 -403 526 -506 724 -648 112 -80 174 -118 295 -180 101 -53
101 -51 0 32 -146 120 -327 320 -478 530 -34 47 -65 90 -69 95 -13 16 -174
259 -248 375 -267 412 -383 575 -516 725 -70 79 -179 183 -240 229 l-57 43 49
42 c27 23 61 66 76 94 36 68 38 187 5 257 -34 74 -117 147 -186 164 -40 10
-117 15 -141 9z"/>
<path d="M4991 4319 c-46 -5 -107 -13 -135 -19 -28 -6 -61 -14 -74 -16 -33 -7
-191 -65 -196 -72 -2 -4 8 -7 22 -8 52 -1 143 -14 206 -28 492 -115 873 -537
922 -1021 9 -87 9 -231 0 -310 -4 -33 -9 -82 -12 -110 -8 -65 -51 -293 -71
-370 -8 -33 -16 -67 -18 -75 -2 -8 -24 -96 -50 -195 -139 -538 -179 -705 -201
-835 -2 -14 -6 -34 -8 -45 -3 -11 -8 -47 -12 -80 -3 -33 -8 -63 -10 -66 -12
-21 -21 -282 -15 -454 3 -70 15 -52 25 37 14 122 85 364 163 553 65 160 105
244 338 710 116 231 221 445 234 475 13 30 30 69 37 85 41 91 115 322 129 400
2 17 7 39 9 51 2 12 7 45 11 75 4 30 8 55 9 56 1 1 14 -4 28 -11 100 -52 233
-35 325 40 169 138 130 416 -71 505 -94 41 -204 29 -295 -32 -55 -38 -56 -38
-64 -16 -5 12 -30 67 -58 122 -177 362 -554 618 -955 650 -43 4 -90 7 -104 9
-14 1 -63 -1 -109 -5z"/>
<path d="M20 3377 c3 -2 32 -26 65 -53 263 -211 445 -440 868 -1094 162 -250
272 -409 371 -535 85 -108 259 -285 338 -345 l58 -42 -38 -30 c-84 -66 -116
-133 -116 -243 0 -67 4 -88 27 -131 76 -149 261 -210 407 -134 115 60 184 205
156 329 l-8 33 63 -8 c443 -55 866 125 1131 480 117 157 205 377 225 561 l5
50 -50 -70 c-223 -310 -573 -492 -957 -500 -360 -6 -654 132 -1061 500 -49 44
-210 200 -359 346 -148 147 -296 291 -329 320 -32 30 -79 73 -105 97 -66 62
-264 221 -341 274 -77 54 -265 163 -318 185 -20 8 -35 13 -32 10z"/>
<path d="M4675 2870 c29 -56 81 -207 90 -259 3 -19 8 -37 10 -41 7 -11 19
-159 18 -225 -1 -191 -43 -368 -128 -538 -187 -370 -487 -568 -1155 -762 -69
-20 -132 -38 -140 -40 -34 -8 -297 -81 -460 -127 -188 -53 -478 -148 -544
-178 -23 -10 -70 -31 -106 -46 -36 -16 -99 -46 -140 -67 -82 -43 -267 -163
-235 -152 11 4 56 20 100 37 133 49 373 108 505 123 30 3 66 8 80 10 14 2 48
7 75 9 28 3 73 8 100 11 70 7 251 19 470 30 61 3 146 8 190 10 44 3 116 7 160
10 44 2 112 7 150 10 65 5 88 8 185 20 19 3 51 7 70 9 20 3 47 7 60 10 14 3
43 8 65 11 76 11 234 55 323 90 49 19 91 35 93 35 2 0 5 -19 7 -42 4 -61 47
-142 102 -191 161 -144 422 -69 483 138 42 143 -24 291 -158 355 l-65 31 53
72 c219 297 288 677 188 1042 -52 189 -165 379 -311 526 -38 38 -148 129 -156
129 -2 0 7 -23 21 -50z"/>
</g>
</svg>
