<svg xmlns="http://www.w3.org/2000/svg" xmlns:xlink="http://www.w3.org/1999/xlink" width="500" zoomAndPan="magnify" viewBox="0 0 375 374.999991" height="500" preserveAspectRatio="xMidYMid meet" version="1.0"><defs><g/><clipPath id="d96ebac134"><path d="M 137 161 L 238 161 L 238 237.1875 L 137 237.1875 Z M 137 161 " clip-rule="nonzero"/></clipPath><clipPath id="f278f34a88"><path d="M 82.222656 147 L 190 147 L 190 228 L 82.222656 228 Z M 82.222656 147 " clip-rule="nonzero"/></clipPath><clipPath id="a3c5c12fc7"><path d="M 137 51.1875 L 238 51.1875 L 238 127 L 137 127 Z M 137 51.1875 " clip-rule="nonzero"/></clipPath><clipPath id="b19d189032"><path d="M 185 60 L 292.972656 60 L 292.972656 141 L 185 141 Z M 185 60 " clip-rule="nonzero"/></clipPath></defs><path fill="#7f248d" d="M 232.09375 119.605469 C 227.722656 120.007812 223.605469 121.167969 219.855469 122.945312 C 234.960938 123.296875 248.847656 133.105469 253.660156 148.316406 C 260.898438 171.191406 239.503906 205.628906 243.257812 233.730469 C 245.398438 207.386719 270.085938 180.320312 271.652344 157.410156 C 273.300781 158.472656 275.289062 159.015625 277.390625 158.824219 C 282.378906 158.363281 286.046875 153.949219 285.585938 148.964844 C 285.125 143.976562 280.714844 140.308594 275.726562 140.765625 C 273.316406 140.988281 271.222656 142.140625 269.746094 143.828125 C 264.382812 128.421875 249.070312 118.042969 232.09375 119.605469 " fill-opacity="1" fill-rule="nonzero"/><g clip-path="url(#d96ebac134)"><path fill="#1082ce" d="M 231.132812 170.433594 C 228.597656 166.847656 225.535156 163.863281 222.121094 161.503906 C 229.371094 174.757812 227.820312 191.695312 217.054688 203.464844 C 200.863281 221.175781 160.34375 219.859375 137.886719 237.164062 C 161.769531 225.847656 197.554688 233.695312 218.175781 223.597656 C 218.078125 225.554688 218.601562 227.550781 219.820312 229.273438 C 222.710938 233.359375 228.367188 234.332031 232.457031 231.441406 C 236.546875 228.550781 237.515625 222.890625 234.625 218.804688 C 233.226562 216.828125 231.183594 215.589844 228.980469 215.152344 C 239.644531 202.804688 240.972656 184.355469 231.132812 170.433594 " fill-opacity="1" fill-rule="nonzero"/></g><g clip-path="url(#f278f34a88)"><path fill="#40b93c" d="M 186.636719 195.015625 C 188.476562 191.027344 189.53125 186.882812 189.867188 182.746094 C 182.011719 195.652344 166.570312 202.777344 150.992188 199.339844 C 127.5625 194.171875 108.441406 158.417969 82.226562 147.621094 C 103.96875 162.648438 115.066406 197.5625 134.117188 210.375 C 132.378906 211.269531 130.910156 212.722656 130.027344 214.636719 C 127.933594 219.183594 129.921875 224.570312 134.46875 226.664062 C 139.015625 228.761719 144.402344 226.773438 146.496094 222.222656 C 147.507812 220.027344 147.558594 217.636719 146.835938 215.511719 C 162.859375 218.574219 179.503906 210.496094 186.636719 195.015625 " fill-opacity="1" fill-rule="nonzero"/></g><path fill="#fbc108" d="M 143.105469 168.769531 C 147.472656 168.367188 151.59375 167.207031 155.339844 165.429688 C 140.238281 165.078125 126.347656 155.269531 121.535156 140.058594 C 114.296875 117.183594 135.695312 82.746094 131.941406 54.644531 C 129.796875 80.988281 105.109375 108.054688 103.542969 130.964844 C 101.898438 129.902344 99.90625 129.359375 97.808594 129.550781 C 92.820312 130.011719 89.148438 134.421875 89.613281 139.410156 C 90.070312 144.398438 94.484375 148.066406 99.46875 147.609375 C 101.878906 147.386719 103.976562 146.234375 105.453125 144.546875 C 110.8125 159.953125 126.128906 170.332031 143.105469 168.769531 " fill-opacity="1" fill-rule="nonzero"/><g clip-path="url(#a3c5c12fc7)"><path fill="#e91348" d="M 144.0625 117.941406 C 146.597656 121.527344 149.660156 124.511719 153.074219 126.871094 C 145.824219 113.613281 147.375 96.679688 158.140625 84.910156 C 174.332031 67.199219 214.851562 68.515625 237.308594 51.210938 C 213.425781 62.527344 177.644531 54.679688 157.019531 64.777344 C 157.117188 62.820312 156.59375 60.824219 155.378906 59.101562 C 152.488281 55.011719 146.832031 54.042969 142.742188 56.933594 C 138.652344 59.824219 137.679688 65.484375 140.574219 69.570312 C 141.96875 71.546875 144.015625 72.785156 146.214844 73.222656 C 135.554688 85.566406 134.222656 104.019531 144.0625 117.941406 " fill-opacity="1" fill-rule="nonzero"/></g><g clip-path="url(#b19d189032)"><path fill="#f1471d" d="M 188.558594 93.359375 C 186.722656 97.347656 185.667969 101.492188 185.332031 105.628906 C 193.1875 92.722656 208.625 85.597656 224.203125 89.035156 C 247.632812 94.203125 266.757812 129.957031 292.96875 140.753906 C 271.226562 125.726562 260.132812 90.8125 241.078125 78 C 242.820312 77.105469 244.289062 75.652344 245.167969 73.738281 C 247.265625 69.191406 245.277344 63.804688 240.730469 61.710938 C 236.183594 59.613281 230.796875 61.601562 228.699219 66.152344 C 227.6875 68.347656 227.636719 70.738281 228.363281 72.863281 C 212.335938 69.800781 195.691406 77.875 188.558594 93.359375 " fill-opacity="1" fill-rule="nonzero"/></g><g fill="#ffffff" fill-opacity="1"><g transform="translate(6.768702, 296.515036)"><g><path d="M 33.640625 0 L 33.59375 -19.625 L 23.96875 -3.453125 L 20.5625 -3.453125 L 10.984375 -19.203125 L 10.984375 0 L 3.875 0 L 3.875 -32.703125 L 10.140625 -32.703125 L 22.375 -12.375 L 34.4375 -32.703125 L 40.640625 -32.703125 L 40.734375 0 Z M 33.640625 0 "/></g></g></g><g fill="#ffffff" fill-opacity="1"><g transform="translate(53.115218, 296.515036)"><g><path d="M 25.421875 -7.015625 L 10.234375 -7.015625 L 7.328125 0 L -0.421875 0 L 14.15625 -32.703125 L 21.625 -32.703125 L 36.25 0 L 28.3125 0 Z M 23.03125 -12.75 L 17.84375 -25.28125 L 12.65625 -12.75 Z M 23.03125 -12.75 "/></g></g></g><g fill="#ffffff" fill-opacity="1"><g transform="translate(90.63169, 296.515036)"><g><path d="M 33.875 -32.703125 L 33.875 0 L 27.65625 0 L 11.359375 -19.859375 L 11.359375 0 L 3.875 0 L 3.875 -32.703125 L 10.140625 -32.703125 L 26.390625 -12.84375 L 26.390625 -32.703125 Z M 33.875 -32.703125 "/></g></g></g><g fill="#ffffff" fill-opacity="1"><g transform="translate(130.1104, 296.515036)"><g><path d="M 19.53125 0.5625 C 16.195312 0.5625 13.179688 -0.160156 10.484375 -1.609375 C 7.796875 -3.054688 5.679688 -5.066406 4.140625 -7.640625 C 2.597656 -10.210938 1.828125 -13.117188 1.828125 -16.359375 C 1.828125 -19.585938 2.597656 -22.488281 4.140625 -25.0625 C 5.679688 -27.632812 7.796875 -29.644531 10.484375 -31.09375 C 13.179688 -32.539062 16.210938 -33.265625 19.578125 -33.265625 C 22.410156 -33.265625 24.96875 -32.765625 27.25 -31.765625 C 29.539062 -30.773438 31.46875 -29.34375 33.03125 -27.46875 L 28.171875 -22.984375 C 25.960938 -25.535156 23.222656 -26.8125 19.953125 -26.8125 C 17.921875 -26.8125 16.109375 -26.367188 14.515625 -25.484375 C 12.929688 -24.597656 11.695312 -23.359375 10.8125 -21.765625 C 9.925781 -20.179688 9.484375 -18.378906 9.484375 -16.359375 C 9.484375 -14.328125 9.925781 -12.515625 10.8125 -10.921875 C 11.695312 -9.335938 12.929688 -8.101562 14.515625 -7.21875 C 16.109375 -6.332031 17.921875 -5.890625 19.953125 -5.890625 C 23.222656 -5.890625 25.960938 -7.179688 28.171875 -9.765625 L 33.03125 -5.28125 C 31.46875 -3.375 29.535156 -1.921875 27.234375 -0.921875 C 24.929688 0.0664062 22.363281 0.5625 19.53125 0.5625 Z M 19.53125 0.5625 "/></g></g></g><g fill="#ffffff" fill-opacity="1"><g transform="translate(166.085116, 296.515036)"><g><path d="M 33.875 -32.703125 L 33.875 0 L 26.296875 0 L 26.296875 -13.40625 L 11.453125 -13.40625 L 11.453125 0 L 3.875 0 L 3.875 -32.703125 L 11.453125 -32.703125 L 11.453125 -19.8125 L 26.296875 -19.8125 L 26.296875 -32.703125 Z M 33.875 -32.703125 "/></g></g></g><g fill="#ffffff" fill-opacity="1"><g transform="translate(205.563819, 296.515036)"><g><path d="M 29.203125 -6.078125 L 29.203125 0 L 3.875 0 L 3.875 -32.703125 L 28.59375 -32.703125 L 28.59375 -26.625 L 11.40625 -26.625 L 11.40625 -19.53125 L 26.578125 -19.53125 L 26.578125 -13.640625 L 11.40625 -13.640625 L 11.40625 -6.078125 Z M 29.203125 -6.078125 "/></g></g></g><g fill="#ffffff" fill-opacity="1"><g transform="translate(238.641912, 296.515036)"><g><path d="M 14.625 0.5625 C 12.039062 0.5625 9.539062 0.210938 7.125 -0.484375 C 4.707031 -1.191406 2.769531 -2.101562 1.3125 -3.21875 L 3.875 -8.921875 C 5.28125 -7.890625 6.945312 -7.0625 8.875 -6.4375 C 10.800781 -5.820312 12.734375 -5.515625 14.671875 -5.515625 C 16.816406 -5.515625 18.40625 -5.832031 19.4375 -6.46875 C 20.46875 -7.101562 20.984375 -7.953125 20.984375 -9.015625 C 20.984375 -9.796875 20.675781 -10.441406 20.0625 -10.953125 C 19.457031 -11.460938 18.679688 -11.875 17.734375 -12.1875 C 16.785156 -12.5 15.5 -12.84375 13.875 -13.21875 C 11.382812 -13.8125 9.34375 -14.40625 7.75 -15 C 6.164062 -15.59375 4.804688 -16.539062 3.671875 -17.84375 C 2.535156 -19.15625 1.96875 -20.898438 1.96875 -23.078125 C 1.96875 -24.972656 2.476562 -26.691406 3.5 -28.234375 C 4.53125 -29.773438 6.082031 -31 8.15625 -31.90625 C 10.226562 -32.8125 12.757812 -33.265625 15.75 -33.265625 C 17.832031 -33.265625 19.867188 -33.015625 21.859375 -32.515625 C 23.859375 -32.015625 25.601562 -31.300781 27.09375 -30.375 L 24.765625 -24.625 C 21.742188 -26.332031 18.722656 -27.1875 15.703125 -27.1875 C 13.578125 -27.1875 12.007812 -26.84375 11 -26.15625 C 9.988281 -25.476562 9.484375 -24.578125 9.484375 -23.453125 C 9.484375 -22.328125 10.066406 -21.492188 11.234375 -20.953125 C 12.398438 -20.410156 14.179688 -19.875 16.578125 -19.34375 C 19.078125 -18.75 21.117188 -18.15625 22.703125 -17.5625 C 24.296875 -16.96875 25.660156 -16.03125 26.796875 -14.75 C 27.929688 -13.476562 28.5 -11.753906 28.5 -9.578125 C 28.5 -7.710938 27.976562 -6.007812 26.9375 -4.46875 C 25.894531 -2.925781 24.328125 -1.703125 22.234375 -0.796875 C 20.148438 0.109375 17.613281 0.5625 14.625 0.5625 Z M 14.625 0.5625 "/></g></g></g><g fill="#ffffff" fill-opacity="1"><g transform="translate(270.17825, 296.515036)"><g><path d="M 10.65625 -26.53125 L 0.1875 -26.53125 L 0.1875 -32.703125 L 28.6875 -32.703125 L 28.6875 -26.53125 L 18.21875 -26.53125 L 18.21875 0 L 10.65625 0 Z M 10.65625 -26.53125 "/></g></g></g><g fill="#ffffff" fill-opacity="1"><g transform="translate(300.78018, 296.515036)"><g><path d="M 29.203125 -6.078125 L 29.203125 0 L 3.875 0 L 3.875 -32.703125 L 28.59375 -32.703125 L 28.59375 -26.625 L 11.40625 -26.625 L 11.40625 -19.53125 L 26.578125 -19.53125 L 26.578125 -13.640625 L 11.40625 -13.640625 L 11.40625 -6.078125 Z M 29.203125 -6.078125 "/></g></g></g><g fill="#ffffff" fill-opacity="1"><g transform="translate(333.858256, 296.515036)"><g><path d="M 24.71875 0 L 18.40625 -9.109375 L 11.453125 -9.109375 L 11.453125 0 L 3.875 0 L 3.875 -32.703125 L 18.03125 -32.703125 C 20.925781 -32.703125 23.441406 -32.21875 25.578125 -31.25 C 27.710938 -30.289062 29.351562 -28.921875 30.5 -27.140625 C 31.65625 -25.367188 32.234375 -23.269531 32.234375 -20.84375 C 32.234375 -18.40625 31.648438 -16.304688 30.484375 -14.546875 C 29.316406 -12.785156 27.660156 -11.441406 25.515625 -10.515625 L 32.84375 0 Z M 24.578125 -20.84375 C 24.578125 -22.675781 23.984375 -24.082031 22.796875 -25.0625 C 21.617188 -26.039062 19.890625 -26.53125 17.609375 -26.53125 L 11.453125 -26.53125 L 11.453125 -15.140625 L 17.609375 -15.140625 C 19.890625 -15.140625 21.617188 -15.632812 22.796875 -16.625 C 23.984375 -17.625 24.578125 -19.03125 24.578125 -20.84375 Z M 24.578125 -20.84375 "/></g></g></g><g fill="#ffffff" fill-opacity="1"><g transform="translate(61.353633, 330.030144)"><g><path d="M 13.15625 -9.90625 L 13.15625 -16.671875 L 15.09375 -16.671875 L 15.09375 0 L 13.15625 0 L 13.15625 -8.25 L 4.484375 -8.25 L 4.484375 0 L 2.515625 0 L 2.515625 -16.671875 L 4.484375 -16.671875 L 4.484375 -9.90625 Z M 13.15625 -9.90625 "/></g></g></g><g fill="#ffffff" fill-opacity="1"><g transform="translate(89.969515, 330.030144)"><g><path d="M 4.484375 -7.859375 L 4.484375 -1.625 L 12.984375 -1.625 L 12.984375 0 L 2.515625 0 L 2.515625 -16.671875 L 12.796875 -16.671875 L 12.796875 -15.0625 L 4.484375 -15.0625 L 4.484375 -9.484375 L 11.8125 -9.484375 L 11.8125 -7.859375 Z M 4.484375 -7.859375 "/></g></g></g><g fill="#ffffff" fill-opacity="1"><g transform="translate(115.038067, 330.030144)"><g><path d="M 15.015625 0 L 12.90625 0 L 11.375 -4.578125 L 4.265625 -4.578125 L 2.71875 0 L 0.65625 0 L 6.484375 -16.671875 L 9.1875 -16.671875 Z M 7.671875 -14.65625 L 4.8125 -6.21875 L 10.8125 -6.21875 L 7.96875 -14.65625 Z M 7.671875 -14.65625 "/></g></g></g><g fill="#ffffff" fill-opacity="1"><g transform="translate(141.692077, 330.030144)"><g><path d="M 4.484375 -16.671875 L 4.484375 -1.625 L 12.515625 -1.625 L 12.515625 0 L 2.515625 0 L 2.515625 -16.671875 Z M 4.484375 -16.671875 "/></g></g></g><g fill="#ffffff" fill-opacity="1"><g transform="translate(165.893756, 330.030144)"><g><path d="M 13.015625 -16.671875 L 13.015625 -15.015625 L 7.796875 -15.015625 L 7.796875 0 L 5.84375 0 L 5.84375 -15.015625 L 0.609375 -15.015625 L 0.609375 -16.671875 Z M 13.015625 -16.671875 "/></g></g></g><g fill="#ffffff" fill-opacity="1"><g transform="translate(190.494644, 330.030144)"><g><path d="M 13.15625 -9.90625 L 13.15625 -16.671875 L 15.09375 -16.671875 L 15.09375 0 L 13.15625 0 L 13.15625 -8.25 L 4.484375 -8.25 L 4.484375 0 L 2.515625 0 L 2.515625 -16.671875 L 4.484375 -16.671875 L 4.484375 -9.90625 Z M 13.15625 -9.90625 "/></g></g></g><g fill="#ffffff" fill-opacity="1"><g transform="translate(219.110526, 330.030144)"><g><path d="M 9.21875 0.234375 C 7.757812 0.234375 6.457031 -0.0976562 5.3125 -0.765625 C 4.175781 -1.429688 3.285156 -2.410156 2.640625 -3.703125 C 1.992188 -4.992188 1.671875 -6.539062 1.671875 -8.34375 C 1.671875 -10.144531 1.992188 -11.6875 2.640625 -12.96875 C 3.285156 -14.257812 4.175781 -15.238281 5.3125 -15.90625 C 6.457031 -16.582031 7.757812 -16.921875 9.21875 -16.921875 C 10.769531 -16.921875 12.0625 -16.625 13.09375 -16.03125 C 14.132812 -15.4375 14.882812 -14.550781 15.34375 -13.375 L 14.09375 -12.53125 L 13.796875 -12.53125 C 13.335938 -13.476562 12.742188 -14.148438 12.015625 -14.546875 C 11.285156 -14.953125 10.351562 -15.15625 9.21875 -15.15625 C 8.164062 -15.15625 7.234375 -14.921875 6.421875 -14.453125 C 5.609375 -13.984375 4.960938 -13.238281 4.484375 -12.21875 C 4.003906 -11.207031 3.765625 -9.914062 3.765625 -8.34375 C 3.765625 -6.757812 4.003906 -5.460938 4.484375 -4.453125 C 4.960938 -3.441406 5.609375 -2.703125 6.421875 -2.234375 C 7.234375 -1.765625 8.164062 -1.53125 9.21875 -1.53125 C 10.425781 -1.53125 11.410156 -1.800781 12.171875 -2.34375 C 12.941406 -2.882812 13.515625 -3.765625 13.890625 -4.984375 L 14.171875 -4.984375 L 15.484375 -4.328125 C 15.085938 -2.859375 14.351562 -1.726562 13.28125 -0.9375 C 12.21875 -0.15625 10.863281 0.234375 9.21875 0.234375 Z M 9.21875 0.234375 "/></g></g></g><g fill="#ffffff" fill-opacity="1"><g transform="translate(246.448902, 330.030144)"><g><path d="M 15.015625 0 L 12.90625 0 L 11.375 -4.578125 L 4.265625 -4.578125 L 2.71875 0 L 0.65625 0 L 6.484375 -16.671875 L 9.1875 -16.671875 Z M 7.671875 -14.65625 L 4.8125 -6.21875 L 10.8125 -6.21875 L 7.96875 -14.65625 Z M 7.671875 -14.65625 "/></g></g></g><g fill="#ffffff" fill-opacity="1"><g transform="translate(273.102921, 330.030144)"><g><path d="M 2.515625 0 L 2.515625 -16.671875 L 8.578125 -16.671875 C 9.691406 -16.671875 10.628906 -16.484375 11.390625 -16.109375 C 12.148438 -15.742188 12.71875 -15.222656 13.09375 -14.546875 C 13.476562 -13.878906 13.671875 -13.085938 13.671875 -12.171875 C 13.671875 -11.140625 13.410156 -10.285156 12.890625 -9.609375 C 12.378906 -8.929688 11.578125 -8.425781 10.484375 -8.09375 L 10.484375 -7.859375 C 11.023438 -7.648438 11.460938 -7.316406 11.796875 -6.859375 C 12.140625 -6.398438 12.457031 -5.71875 12.75 -4.8125 L 14.296875 0 L 12.265625 0 L 10.609375 -5.09375 C 10.410156 -5.695312 10.179688 -6.171875 9.921875 -6.515625 C 9.660156 -6.859375 9.332031 -7.101562 8.9375 -7.25 C 8.539062 -7.40625 8.039062 -7.484375 7.4375 -7.484375 L 4.484375 -7.484375 L 4.484375 0 Z M 8.53125 -9.140625 C 9.570312 -9.140625 10.347656 -9.378906 10.859375 -9.859375 C 11.367188 -10.347656 11.625 -11.085938 11.625 -12.078125 C 11.625 -13.066406 11.367188 -13.800781 10.859375 -14.28125 C 10.347656 -14.769531 9.570312 -15.015625 8.53125 -15.015625 L 4.484375 -15.015625 L 4.484375 -9.140625 Z M 8.53125 -9.140625 "/></g></g></g><g fill="#ffffff" fill-opacity="1"><g transform="translate(299.528814, 330.030144)"><g><path d="M 4.484375 -7.859375 L 4.484375 -1.625 L 12.984375 -1.625 L 12.984375 0 L 2.515625 0 L 2.515625 -16.671875 L 12.796875 -16.671875 L 12.796875 -15.0625 L 4.484375 -15.0625 L 4.484375 -9.484375 L 11.8125 -9.484375 L 11.8125 -7.859375 Z M 4.484375 -7.859375 "/></g></g></g></svg>